<svg xmlns="http://www.w3.org/2000/svg" width="826" height="657"><defs><style>@import url('https://fonts.googleapis.com/css2?family=Roboto+Mono&amp;display=swap')</style><style>text,text&gt;tspan{font-family:'Roboto Mono';font-size:16px} rect{stroke:black} line,path{fill:none;stroke:black}</style><marker id="arrowMarker" orient="auto" refX="6" refY="5" markerHeight="10" markerWidth="5"><path style="fill:black;stroke:black" d="M 0 0 L 5 5 L 0 10 Z"></path></marker><marker id="inheritMarker" orient="auto" refX="16" refY="7.5" markerHeight="15" markerWidth="15"><path style="fill:white;stroke:black" d="M 0 0 L 15 7.5 L 0 15 Z"></path></marker><marker id="aggregationMarker" orient="auto" refX="21" refY="7.5" markerHeight="15" markerWidth="20"><path style="fill:white;stroke:black" d="M 0 7.5 L 10 0 L 20 7.5 L 10 15 Z"></path></marker><marker id="compositionMarker" orient="auto" refX="21" refY="7.5" markerHeight="15" markerWidth="20"><path style="fill:black;stroke:black" d="M 0 7.5 L 10 0 L 20 7.5 L 10 15 Z"></path></marker></defs><g transform="translate(47,21)"><rect height="58" width="67" style="fill:white"></rect><rect height="21" width="67" style="fill:lightgrey"></rect><text x="5" y="16">Person</text><text><tspan x="2.5" y="37" style="text-decoration:underline">per_id</tspan><tspan x="2.5" y="53"></tspan></text></g><g transform="translate(207,21)"><rect height="58" width="76" style="fill:white"></rect><rect height="21" width="76.5" style="fill:lightgrey"></rect><text x="5" y="16">Profile</text><text><tspan x="2.5" y="37" style="text-decoration:underline">prf_id</tspan><tspan x="2.5" y="53"></tspan></text></g><g transform="translate(487,5)"><rect height="90" width="67" style="fill:white"></rect><rect height="21" width="67" style="fill:lightgrey"></rect><text x="9.75" y="16">Users</text><text><tspan x="2.5" y="37" style="text-decoration:underline">usr_id</tspan><tspan x="2.5" y="53"></tspan><tspan x="2.5" y="69">prf_id</tspan><tspan x="2.5" y="85">per_id</tspan></text></g><g transform="translate(43,145)"><rect height="74" width="76" style="fill:white"></rect><rect height="21" width="76.5" style="fill:lightgrey"></rect><text x="5" y="16">Student</text><text><tspan x="2.5" y="37" style="text-decoration:underline">std_id</tspan><tspan x="2.5" y="53"></tspan><tspan x="2.5" y="69">per_id</tspan></text></g><g transform="translate(333,145)"><rect height="74" width="95" style="fill:white"></rect><rect height="21" width="95.5" style="fill:lightgrey"></rect><text x="5" y="16">Professor</text><text><tspan x="2.5" y="37" style="text-decoration:underline">pro_id</tspan><tspan x="2.5" y="53"></tspan><tspan x="2.5" y="69">per_id</tspan></text></g><g transform="translate(14,269)"><rect height="74" width="133" style="fill:white"></rect><rect height="21" width="133.5" style="fill:lightgrey"></rect><text x="5" y="16">Establishment</text><text><tspan x="2.5" y="37" style="text-decoration:underline">est_id</tspan><tspan x="2.5" y="53"></tspan><tspan x="2.5" y="69">parent_site</tspan></text></g><g transform="translate(478,269)"><rect height="74" width="86" style="fill:white"></rect><rect height="21" width="86" style="fill:lightgrey"></rect><text x="5" y="16">Training</text><text><tspan x="2.5" y="37" style="text-decoration:underline">tra_id</tspan><tspan x="2.5" y="53"></tspan><tspan x="2.5" y="69">est_id</tspan></text></g><g transform="translate(614,269)"><rect height="74" width="162" style="fill:white"></rect><rect height="21" width="162" style="fill:lightgrey"></rect><text x="5" y="16">Training_session</text><text><tspan x="2.5" y="37" style="text-decoration:underline">trs_id</tspan><tspan x="2.5" y="53"></tspan><tspan x="2.5" y="69">tra_id</tspan></text></g><g transform="translate(43,393)"><rect height="74" width="76" style="fill:white"></rect><rect height="21" width="76.5" style="fill:lightgrey"></rect><text x="5" y="16">Subject</text><text><tspan x="2.5" y="37" style="text-decoration:underline">sub_id</tspan><tspan x="2.5" y="53"></tspan><tspan x="2.5" y="69">trs_id</tspan></text></g><g transform="translate(5,517)"><rect height="90" width="152" style="fill:white"></rect><rect height="21" width="152.5" style="fill:lightgrey"></rect><text x="5" y="16">Subject_session</text><text><tspan x="2.5" y="37" style="text-decoration:underline">sus_id</tspan><tspan x="2.5" y="53"></tspan><tspan x="2.5" y="69">pro_id</tspan><tspan x="2.5" y="85">sub_id</tspan></text></g><g transform="translate(487,533)"><rect height="58" width="67" style="fill:white"></rect><rect height="21" width="67" style="fill:lightgrey"></rect><text x="9.75" y="16">Class</text><text><tspan x="2.5" y="37" style="text-decoration:underline">cls_id</tspan><tspan x="2.5" y="53"></tspan></text></g><g><path d="M 487 69 L 477 69 L 293 53 L 283 53" marker-end="url(#arrowMarker)"></path></g><g><path d="M 487 85 L 477 85 L 124 53 L 114 53" marker-end="url(#arrowMarker)"></path></g><g><path d="M 119 209 L 129 209 L 129 53 L 114 53" marker-end="url(#arrowMarker)"></path></g><g><path d="M 333 209 L 323 209 L 124 53 L 114 53" marker-end="url(#arrowMarker)"></path></g><g><path d="M 147 333 L 157 333 L 157 301 L 147 301" marker-end="url(#arrowMarker)"></path></g><g><path d="M 478 333 L 468 333 L 157 301 L 147 301" marker-end="url(#arrowMarker)"></path></g><g><path d="M 614 333 L 604 333 L 574 301 L 564 301" marker-end="url(#arrowMarker)"></path></g><g><path d="M 119 457 L 129 457 L 604 301 L 614 301" marker-end="url(#arrowMarker)"></path></g><g><path d="M 157 581 L 167 581 L 323 177 L 333 177" marker-end="url(#arrowMarker)"></path></g><g><path d="M 157 597 L 167 597 L 167 425 L 119 425" marker-end="url(#arrowMarker)"></path></g></svg>